# xmcd CD database file
#
# Track frame offsets:
#	150
#	4182
#	19109
#	35109
#	49506
#	65338
#	83565
#	103517
#	116346
#	150246
#	167798
#
# Disc length: 2341 seconds
#
# Revision: 6
# Processed by: cddbd v1.5.2PL0 Copyright (c) Steve Scherf et al.
# Submitted via: CDex 2.18
#
DISCID=7709230b
DTITLE=Steamhammer - Steamhammer (1969)
DYEAR=1969
DGENRE=Progrock
TTITLE0=Water (part 1)
TTITLE1=Junior's Wailing
TTITLE2=Lost You Too
TTITLE3=She Is The Fire
TTITLE4=You'll Never Know
TTITLE5=Even The Clock
TTITLE6=Down The Highway
TTITLE7=On Your Road
TTITLE8=Twenty Four Hours
TTITLE9=When All Your Friends Are Gone
TTITLE10=Water (part 2)
EXTD=YEAR: 1969
EXTT0=
EXTT1=
EXTT2=
EXTT3=
EXTT4=
EXTT5=
EXTT6=
EXTT7=
EXTT8=
EXTT9=
EXTT10=
PLAYORDER=
